<svg id="Layer_1" data-name="Layer 1" xmlns="http://www.w3.org/2000/svg" xmlns:xlink="http://www.w3.org/1999/xlink" viewBox="0 0 101 20"><defs><style>.cls-1{fill:url(#linear-gradient);}.cls-2,.cls-5,.cls-7{isolation:isolate;}.cls-3,.cls-5,.cls-7{font-size:11px;font-family:Verdana;}.cls-3{fill:#010101;}.cls-4{letter-spacing:-0.11em;}.cls-5{fill:#fff;}.cls-6{fill:url(#linear-gradient-2);}.cls-7{fill:#231f20;}.cls-8{fill:#959da5;fill-rule:evenodd;}</style><linearGradient id="linear-gradient" x1="-890.68" y1="524.55" x2="-890.68" y2="523.55" gradientTransform="matrix(51, 0, 0, -20, 45450, 10491)" gradientUnits="userSpaceOnUse"><stop offset="0" stop-color="#444d56"/><stop offset="1" stop-color="#24292e"/></linearGradient><linearGradient id="linear-gradient-2" x1="-890.32" y1="524.55" x2="-890.32" y2="523.55" gradientTransform="matrix(50, 0, 0, -20, 44592, 10491)" gradientUnits="userSpaceOnUse"><stop offset="0" stop-color="#34d058"/><stop offset="1" stop-color="#28a745"/></linearGradient></defs><path id="workflow-bg" class="cls-1" d="M0,3A3,3,0,0,1,3,0H51V20H3a3,3,0,0,1-3-3Z"/><g class="cls-2"><g class="cls-2"><text class="cls-3" transform="translate(22.2 15)"><tspan class="cls-4">T</tspan><tspan x="5.6" y="0">est</tspan></text></g></g><g class="cls-2"><text class="cls-5" transform="translate(22.2 14)"><tspan class="cls-4">T</tspan><tspan x="5.6" y="0">est</tspan></text></g><path id="state-bg" class="cls-6" d="M51,0H97.94A3,3,0,0,1,101,3V17a3,3,0,0,1-3.06,3H51Z"/><g class="cls-2"><text class="cls-7" transform="translate(56.13 15.13)">V1.0.0</text></g><g class="cls-2"><text class="cls-5" transform="translate(56.13 14.13)">V1.0.0</text></g><path class="cls-8" d="M11,3A7,7,0,0,0,8.79,16.64c.35.06.48-.15.48-.33s0-.72,0-1.31c-1.76.33-2.22-.42-2.36-.82a2.55,2.55,0,0,0-.71-1c-.25-.13-.6-.45,0-.46a1.39,1.39,0,0,1,1.07.72,1.49,1.49,0,0,0,2,.57,1.46,1.46,0,0,1,.45-.93c-1.56-.18-3.19-.78-3.19-3.46a2.75,2.75,0,0,1,.72-1.88A2.53,2.53,0,0,1,7.34,5.9s.59-.19,1.93.71a6.77,6.77,0,0,1,3.5,0c1.34-.91,1.92-.71,1.92-.71a2.47,2.47,0,0,1,.07,1.85,2.69,2.69,0,0,1,.72,1.88c0,2.69-1.64,3.28-3.19,3.46a1.67,1.67,0,0,1,.47,1.29c0,.94,0,1.69,0,1.93s.13.4.48.33A7,7,0,0,0,11,3Z"/></svg>