<svg id="Layer_1" data-name="Layer 1" xmlns="http://www.w3.org/2000/svg" viewBox="0 0 304.43 28"><defs><style>.cls-1{fill:#f05340;}.cls-2{fill:#6c6c6c;}.cls-3{fill:#fff;}</style></defs><rect class="cls-1" width="229.15" height="28"/><rect class="cls-2" x="172.94" width="131.49" height="28"/><path class="cls-3" d="M17.33,10.26h1.8v8.68h-1.8ZM18.15,14h3.06a1.15,1.15,0,0,0,.57-.14,1,1,0,0,0,.39-.38,1.13,1.13,0,0,0,.13-.56,1.2,1.2,0,0,0-.13-.57,1,1,0,0,0-.38-.38,1.21,1.21,0,0,0-.58-.13H18.15V10.26h3a3.55,3.55,0,0,1,1.57.33,2.53,2.53,0,0,1,1.06.93,2.83,2.83,0,0,1,0,2.8,2.51,2.51,0,0,1-1.06.92,3.55,3.55,0,0,1-1.57.33h-3Z"/><path class="cls-3" d="M28.14,10.26H30v8.68H28.14ZM29,13.85h5.57v1.57H29Zm4.4-3.59h1.8v8.68h-1.8Z"/><path class="cls-3" d="M39.84,10.26h1.8v8.68h-1.8ZM40.66,14h3.06a1.15,1.15,0,0,0,.57-.14,1,1,0,0,0,.39-.38,1.13,1.13,0,0,0,.13-.56,1.2,1.2,0,0,0-.13-.57A1,1,0,0,0,44.3,12a1.21,1.21,0,0,0-.58-.13H40.66V10.26h3a3.55,3.55,0,0,1,1.57.33,2.47,2.47,0,0,1,1.06.93,2.83,2.83,0,0,1,0,2.8,2.45,2.45,0,0,1-1.06.92,3.55,3.55,0,0,1-1.57.33h-3Z"/><path class="cls-3" d="M57,10.26h1.8v8.68H57Zm.66,0h5.62v1.58H57.62Zm0,3.66h4.9v1.57h-4.9Z"/><path class="cls-3" d="M67.18,10.25H69v8.69h-1.8Zm.72,3.62h3.33a.85.85,0,0,0,.81-.48,1.53,1.53,0,0,0,.12-.54,1.19,1.19,0,0,0-.12-.54.86.86,0,0,0-.32-.36,1,1,0,0,0-.49-.12H67.9V10.25h3.47a2.83,2.83,0,0,1,1.39.33,2.21,2.21,0,0,1,.93.91,3.05,3.05,0,0,1,0,2.72,2.17,2.17,0,0,1-.94.91,2.82,2.82,0,0,1-1.38.33H67.9Zm2,1.31,1.93-.28,2.58,4H72.23Z"/><path class="cls-3" d="M80.93,10.26h1.14l3.66,8.68H83.79L81.5,13l-2.29,5.93H77.27ZM79,16h5v1.58H79Z"/><path class="cls-3" d="M95.49,10.26h2.37v8.68H96.22V12.2l.07.38L94.46,18H92.87L91,12.7l.07-.5v6.74H89.47V10.26h2.37l1.83,5.85Z"/><path class="cls-3" d="M102.52,10.26h1.8v8.68h-1.8Zm.65,0h5.76v1.58h-5.76Zm0,3.58h5v1.58h-5Zm0,3.52h5.76v1.58h-5.76Z"/><path class="cls-3" d="M123.23,10.26h1.45l1.83,5.79,1.23-5.79h1.85l-2.2,8.68h-1.7L124,12.87l-1.78,6.07h-1.7l-2.2-8.68h1.85l1.23,5.79Z"/><path class="cls-3" d="M134.6,18.63a2.91,2.91,0,0,1-1.23-1.12,3.18,3.18,0,0,1-.43-1.68V13.37a3.18,3.18,0,0,1,.43-1.68,2.91,2.91,0,0,1,1.23-1.12,4.39,4.39,0,0,1,3.66,0,2.91,2.91,0,0,1,1.23,1.12,3.18,3.18,0,0,1,.43,1.68v2.46a3.18,3.18,0,0,1-.43,1.68,2.91,2.91,0,0,1-1.23,1.12,4.39,4.39,0,0,1-3.66,0Zm2.69-1.43a1.39,1.39,0,0,0,.57-.53,1.61,1.61,0,0,0,.2-.8V13.33a1.61,1.61,0,0,0-.2-.8,1.48,1.48,0,0,0-.57-.54,1.94,1.94,0,0,0-.86-.18,1.9,1.9,0,0,0-.85.18,1.35,1.35,0,0,0-.57.54,1.51,1.51,0,0,0-.2.8v2.54a1.51,1.51,0,0,0,.2.8,1.27,1.27,0,0,0,.57.53,1.78,1.78,0,0,0,.85.19A1.82,1.82,0,0,0,137.29,17.2Z"/><path class="cls-3" d="M144.26,10.25h1.8v8.69h-1.8Zm.71,3.62h3.33a1,1,0,0,0,.49-.12.86.86,0,0,0,.32-.36,1.34,1.34,0,0,0,.13-.54,1.19,1.19,0,0,0-.12-.54.93.93,0,0,0-.32-.36,1,1,0,0,0-.5-.12H145V10.25h3.48a2.79,2.79,0,0,1,1.38.33,2.21,2.21,0,0,1,.93.91,3,3,0,0,1,0,2.72,2.21,2.21,0,0,1-.93.91,2.82,2.82,0,0,1-1.38.33H145Zm2,1.31,1.92-.28,2.58,4h-2.18Z"/><path class="cls-3" d="M155.6,10.26h1.8v8.68h-1.8Zm1.08,5.29,3.83-5.29h2.27l-5.87,7.41Zm1.59-1,1.55-.89,3.36,5.28h-2.13Z"/><path class="cls-3" d="M184.46,10.13h1.8v8.68h-1.8Zm.8,7.1h5.61v1.58h-5.61Z"/><path class="cls-3" d="M196.48,10.13h1.14l3.66,8.68h-1.94l-2.29-5.93-2.29,5.93h-1.94Zm-1.9,5.71h5v1.58h-5Z"/><path class="cls-3" d="M203.89,10.12h1.8v8.69h-1.8Zm.72,3.62h3.32a1,1,0,0,0,.49-.12.86.86,0,0,0,.32-.36,1.34,1.34,0,0,0,.13-.54,1.19,1.19,0,0,0-.12-.54.84.84,0,0,0-.32-.35.91.91,0,0,0-.5-.13h-3.32V10.12h3.47a2.86,2.86,0,0,1,1.39.33,2.3,2.3,0,0,1,.92.91,3,3,0,0,1,0,2.72,2.29,2.29,0,0,1-.93.92,2.93,2.93,0,0,1-1.38.32h-3.47Zm2,1.31,1.92-.28,2.58,4h-2.18Z"/><path class="cls-3" d="M216.5,10.13h1.15l3.65,8.68h-1.94l-2.29-5.93-2.28,5.93h-1.94Zm-1.9,5.71h5v1.58h-5Z"/><path class="cls-3" d="M222.33,10.13h1.86l2,5.79,2-5.79h1.86l-3.18,8.68h-1.41Z"/><path class="cls-3" d="M232.72,10.13h1.8v8.68h-1.8Zm.65,0h5.75v1.58h-5.75Zm0,3.58h5v1.58h-5Zm0,3.52h5.75v1.58h-5.75Z"/><path class="cls-3" d="M242.19,10.13H244v8.68h-1.81Zm.81,7.1h5.6v1.58H243Z"/><path class="cls-3" d="M255.4,10.13h1.86l2,5.79,2-5.79h1.85L260,18.81h-1.41Z"/><path class="cls-3" d="M268.71,14.5l.32.21a1,1,0,0,1-.49.41,2.33,2.33,0,0,1-.79.13,2.52,2.52,0,0,1-1.27-.32,2.15,2.15,0,0,1-.85-.89,2.88,2.88,0,0,1-.31-1.34h0a3.06,3.06,0,0,1,.33-1.44,2.17,2.17,0,0,1,1-.91,3.8,3.8,0,0,1,3,0,2.17,2.17,0,0,1,.95.92,3,3,0,0,1,.33,1.45h0a3.25,3.25,0,0,1-.14.94,8.94,8.94,0,0,1-.38,1.09,1.22,1.22,0,0,0-.07.17l-.08.16-1.71,3.72h-1.91Zm.15-1.06a1.11,1.11,0,0,0,.26-.78h0a1.06,1.06,0,0,0-.26-.76,1,1,0,0,0-.73-.26,1,1,0,0,0-.74.27,1,1,0,0,0-.26.76h0a1.05,1.05,0,0,0,.26.78,1.1,1.1,0,0,0,1.47,0Z"/><path class="cls-3" d="M273.63,17.17h1.8v1.64h-1.8Z"/><path class="cls-3" d="M280.91,18.81h-1.8V12.05l-1.17.4V10.72l1.43-.59h1.54Z"/><path class="cls-3" d="M284,17.17h1.8v1.64H284Z"/><path class="cls-3" d="M289.06,18.25a2.31,2.31,0,0,1-.73-1.82V12.49a2.29,2.29,0,0,1,.73-1.82,3.81,3.81,0,0,1,4.26,0,2.28,2.28,0,0,1,.73,1.82v3.94a2.29,2.29,0,0,1-.73,1.82,3.81,3.81,0,0,1-4.26,0ZM292,17a1.6,1.6,0,0,0,.26-1V12.91a1.56,1.56,0,0,0-.26-1,1.11,1.11,0,0,0-1.6,0,1.56,1.56,0,0,0-.26,1V16a1.6,1.6,0,0,0,.26,1,1.13,1.13,0,0,0,1.6,0Z"/></svg>