<svg id="Layer_1" data-name="Layer 1" xmlns="http://www.w3.org/2000/svg" viewBox="0 0 304.43 28"><defs><style>.cls-1{fill:#655be1;}.cls-2{fill:#4f44d6;}.cls-3{fill:#fff;}</style></defs><rect class="cls-1" width="229.15" height="28"/><rect class="cls-2" x="229.03" width="75.39" height="28"/><path class="cls-3" d="M4.42,10.13h1.8v8.68H4.42Zm.82,3.74H8.3a1.2,1.2,0,0,0,.57-.14.93.93,0,0,0,.38-.38,1.13,1.13,0,0,0,.14-.56,1.2,1.2,0,0,0-.14-.57.93.93,0,0,0-.38-.38,1.14,1.14,0,0,0-.57-.13H5.24V10.13h3a3.6,3.6,0,0,1,1.58.33,2.46,2.46,0,0,1,1.05.94,2.56,2.56,0,0,1,.38,1.39,2.6,2.6,0,0,1-.38,1.4,2.42,2.42,0,0,1-1.05.92,3.6,3.6,0,0,1-1.58.33h-3Z"/><path class="cls-3" d="M15.23,10.12H17v8.69h-1.8ZM16,13.74h3.32a.86.86,0,0,0,.82-.48,1.53,1.53,0,0,0,.12-.54,1.19,1.19,0,0,0-.12-.54.78.78,0,0,0-.32-.35.91.91,0,0,0-.5-.13H16V10.12h3.47a2.83,2.83,0,0,1,1.39.33,2.24,2.24,0,0,1,.92.91,3,3,0,0,1,0,2.72,2.29,2.29,0,0,1-.93.92,2.93,2.93,0,0,1-1.38.32H16Zm2,1.31,1.93-.28,2.57,4H20.28Z"/><path class="cls-3" d="M27.77,18.5a2.91,2.91,0,0,1-1.23-1.12,3.18,3.18,0,0,1-.43-1.68V13.24a3.18,3.18,0,0,1,.43-1.68,2.91,2.91,0,0,1,1.23-1.12,4.39,4.39,0,0,1,3.66,0,2.91,2.91,0,0,1,1.23,1.12,3.18,3.18,0,0,1,.43,1.68V15.7a3.18,3.18,0,0,1-.43,1.68,2.91,2.91,0,0,1-1.23,1.12,4.39,4.39,0,0,1-3.66,0Zm2.68-1.42a1.35,1.35,0,0,0,.57-.54,1.51,1.51,0,0,0,.2-.8V13.2a1.51,1.51,0,0,0-.2-.8,1.35,1.35,0,0,0-.57-.54,2.1,2.1,0,0,0-1.7,0,1.35,1.35,0,0,0-.57.54,1.51,1.51,0,0,0-.2.8v2.54a1.51,1.51,0,0,0,.2.8,1.35,1.35,0,0,0,.57.54,2.1,2.1,0,0,0,1.7,0Z"/><path class="cls-3" d="M44.09,14v1.69a3.32,3.32,0,0,1-.43,1.71,2.87,2.87,0,0,1-1.22,1.14,4,4,0,0,1-1.82.4,4.3,4.3,0,0,1-1.85-.38,2.8,2.8,0,0,1-1.67-2.68V13.28a3.28,3.28,0,0,1,.43-1.7,2.87,2.87,0,0,1,1.22-1.14,4,4,0,0,1,1.83-.4,3.86,3.86,0,0,1,1.57.32,3.13,3.13,0,0,1,1.21.9A3.18,3.18,0,0,1,44,12.62H42.07a1.18,1.18,0,0,0-.33-.47,1.48,1.48,0,0,0-.53-.31,1.93,1.93,0,0,0-.63-.1,1.78,1.78,0,0,0-.85.19,1.41,1.41,0,0,0-.57.54,1.68,1.68,0,0,0-.2.81v2.56a1.28,1.28,0,0,0,.79,1.2,2.14,2.14,0,0,0,.87.16,1.93,1.93,0,0,0,.85-.18,1.3,1.3,0,0,0,.56-.53,1.62,1.62,0,0,0,.2-.81v-.15H40.78V14Z"/><path class="cls-3" d="M48.43,10.12h1.8v8.69h-1.8Zm.71,3.62h3.33a1,1,0,0,0,.49-.12.86.86,0,0,0,.32-.36,1.34,1.34,0,0,0,.13-.54,1.19,1.19,0,0,0-.12-.54.84.84,0,0,0-.32-.35.91.91,0,0,0-.5-.13H49.14V10.12h3.48a2.79,2.79,0,0,1,1.38.33,2.26,2.26,0,0,1,.93.91,3,3,0,0,1,0,2.72A2.29,2.29,0,0,1,54,15a2.93,2.93,0,0,1-1.38.32H49.14Zm2,1.31,1.92-.28,2.58,4H53.48Z"/><path class="cls-3" d="M62.17,10.13h1.15L67,18.81H65l-2.28-5.93-2.29,5.93H58.52Zm-1.9,5.71h5v1.58h-5Z"/><path class="cls-3" d="M76.73,10.13h2.38v8.68H77.47V12.07l.06.38-1.82,5.39H74.12l-1.83-5.27.06-.5v6.74H70.71V10.13h2.38L74.91,16Z"/><path class="cls-3" d="M89.79,10.13h2.37v8.68H90.52V12.07l.07.38-1.83,5.39H87.17l-1.83-5.27.07-.5v6.74H83.77V10.13h2.37L88,16Z"/><path class="cls-3" d="M98.56,18.81H96.69V10.13h1.87Z"/><path class="cls-3" d="M103.09,10.13h2.2l3.56,6.65-.16.16V10.13h1.73V18.8H108.2l-3.54-6.54.15-.16v6.7h-1.72Z"/><path class="cls-3" d="M121.88,14v1.69a3.32,3.32,0,0,1-.43,1.71,2.92,2.92,0,0,1-1.22,1.14,4.11,4.11,0,0,1-1.83.4,4.26,4.26,0,0,1-1.84-.38,2.83,2.83,0,0,1-1.24-1.07,3,3,0,0,1-.44-1.61V13.28a3.38,3.38,0,0,1,.43-1.7,3,3,0,0,1,1.22-1.14,4.11,4.11,0,0,1,1.83-.4,3.91,3.91,0,0,1,1.58.32,3.28,3.28,0,0,1,1.21.9,3.18,3.18,0,0,1,.65,1.36h-2a1.07,1.07,0,0,0-.32-.47,1.48,1.48,0,0,0-.53-.31,2,2,0,0,0-.64-.1,1.74,1.74,0,0,0-.84.19,1.3,1.3,0,0,0-.57.54,1.68,1.68,0,0,0-.2.81v2.56a1.27,1.27,0,0,0,.21.72,1.23,1.23,0,0,0,.57.48,2.14,2.14,0,0,0,.87.16,1.87,1.87,0,0,0,.85-.18,1.33,1.33,0,0,0,.57-.53,1.62,1.62,0,0,0,.19-.81v-.15h-1.44V14Z"/><path class="cls-3" d="M132.52,10.13h1.8v8.68h-1.8Zm.8,7.1h5.61v1.58h-5.61Z"/><path class="cls-3" d="M145.67,10.13h1.14l3.66,8.68h-1.94l-2.29-5.93L144,18.81H142Zm-1.9,5.71h5v1.58h-5Z"/><path class="cls-3" d="M154.21,10.13h2.2L160,16.78l-.16.16V10.13h1.73V18.8h-2.22l-3.54-6.54.15-.16v6.7h-1.72Z"/><path class="cls-3" d="M173,14v1.69a3.42,3.42,0,0,1-.43,1.71,3,3,0,0,1-1.22,1.14,4.11,4.11,0,0,1-1.83.4,4.26,4.26,0,0,1-1.84-.38,2.83,2.83,0,0,1-1.24-1.07,3,3,0,0,1-.44-1.61V13.28a3.28,3.28,0,0,1,.43-1.7,3,3,0,0,1,1.22-1.14,4.11,4.11,0,0,1,1.83-.4,3.91,3.91,0,0,1,1.58.32,3.28,3.28,0,0,1,1.21.9,3.18,3.18,0,0,1,.65,1.36H171a1.07,1.07,0,0,0-.32-.47,1.44,1.44,0,0,0-.54-.31,1.89,1.89,0,0,0-.63-.1,1.74,1.74,0,0,0-.84.19,1.3,1.3,0,0,0-.57.54,1.68,1.68,0,0,0-.2.81v2.56a1.34,1.34,0,0,0,.2.72,1.31,1.31,0,0,0,.58.48,2.14,2.14,0,0,0,.87.16,1.9,1.9,0,0,0,.85-.18,1.3,1.3,0,0,0,.56-.53,1.62,1.62,0,0,0,.2-.81v-.15h-1.45V14Z"/><path class="cls-3" d="M178.67,18.52a2.65,2.65,0,0,1-1.19-1.1,3.57,3.57,0,0,1-.41-1.75V10.13h1.8v5.58a1.53,1.53,0,0,0,.44,1.16,2.11,2.11,0,0,0,2.5,0,1.53,1.53,0,0,0,.44-1.16V10.13h1.8v5.54a3.46,3.46,0,0,1-.41,1.75,2.65,2.65,0,0,1-1.19,1.1,4.39,4.39,0,0,1-1.89.38A4.33,4.33,0,0,1,178.67,18.52Z"/><path class="cls-3" d="M190.93,10.13h1.14l3.66,8.68h-1.94l-2.29-5.93-2.29,5.93h-1.94ZM189,15.84h5v1.58h-5Z"/><path class="cls-3" d="M205.74,14v1.69a3.32,3.32,0,0,1-.43,1.71,2.92,2.92,0,0,1-1.22,1.14,4,4,0,0,1-1.83.4,4.29,4.29,0,0,1-1.84-.38,2.8,2.8,0,0,1-1.67-2.68V13.28a3.28,3.28,0,0,1,.43-1.7,2.87,2.87,0,0,1,1.22-1.14,4,4,0,0,1,1.83-.4,3.9,3.9,0,0,1,1.57.32,3.14,3.14,0,0,1,1.86,2.26h-1.94a1.18,1.18,0,0,0-.33-.47,1.48,1.48,0,0,0-.53-.31,1.93,1.93,0,0,0-.63-.1,1.75,1.75,0,0,0-.85.19,1.41,1.41,0,0,0-.57.54,1.68,1.68,0,0,0-.2.81v2.56a1.28,1.28,0,0,0,.79,1.2,2.1,2.1,0,0,0,.86.16,1.94,1.94,0,0,0,.86-.18,1.3,1.3,0,0,0,.56-.53,1.62,1.62,0,0,0,.2-.81v-.15h-1.45V14Z"/><path class="cls-3" d="M210.08,10.13h1.8v8.68h-1.8Zm.65,0h5.75v1.58h-5.75Zm0,3.58h5v1.58h-5Zm0,3.52h5.75v1.58h-5.75Z"/><path class="cls-3" d="M236.57,10.13h1.81v8.68h-1.81Zm.83,3.74h3a1.15,1.15,0,0,0,.57-.14.89.89,0,0,0,.39-.38,1.13,1.13,0,0,0,.14-.56,1.2,1.2,0,0,0-.14-.57,1,1,0,0,0-.38-.38,1.21,1.21,0,0,0-.58-.13h-3V10.13h3a3.55,3.55,0,0,1,1.57.33,2.43,2.43,0,0,1,1.06.94,2.56,2.56,0,0,1,.37,1.39,2.59,2.59,0,0,1-.37,1.4,2.39,2.39,0,0,1-1.06.92,3.55,3.55,0,0,1-1.57.33h-3Z"/><path class="cls-3" d="M244.83,10.13h1.8v8.68h-1.8Zm.83,3.59h5.57v1.57h-5.57Zm4.4-3.59h1.8v8.68h-1.8Z"/><path class="cls-3" d="M254,10.13h1.8v8.68H254Zm.82,3.74h3.06a1.2,1.2,0,0,0,.57-.14.93.93,0,0,0,.38-.38,1.13,1.13,0,0,0,.14-.56,1.2,1.2,0,0,0-.14-.57.93.93,0,0,0-.38-.38,1.14,1.14,0,0,0-.57-.13h-3.06V10.13h3a3.6,3.6,0,0,1,1.58.33,2.46,2.46,0,0,1,1.05.94,2.56,2.56,0,0,1,.38,1.39,2.6,2.6,0,0,1-.38,1.4,2.42,2.42,0,0,1-1.05.92,3.6,3.6,0,0,1-1.58.33h-3Z"/><path class="cls-3" d="M265,10.13h1.86l2,5.79,2-5.79h1.86l-3.19,8.68h-1.41Z"/><path class="cls-3" d="M275,18.6a2.49,2.49,0,0,1-1.06-.84,2.2,2.2,0,0,1-.37-1.27v-.15a2.13,2.13,0,0,1,.39-1.22,2.46,2.46,0,0,1,1-.86,2.22,2.22,0,0,1-.9-.72,1.64,1.64,0,0,1-.35-1v-.23a2.07,2.07,0,0,1,.36-1.2,2.27,2.27,0,0,1,1-.8,4.1,4.1,0,0,1,3,0,2.27,2.27,0,0,1,1,.8,2.06,2.06,0,0,1,.35,1.2v.23a1.58,1.58,0,0,1-.35,1,2.2,2.2,0,0,1-.92.71,2.46,2.46,0,0,1,1.07.86,2.07,2.07,0,0,1,.4,1.22v.15a2.2,2.2,0,0,1-.37,1.27,2.46,2.46,0,0,1-1.07.84,4.39,4.39,0,0,1-3.19,0Zm2.24-1.41a1,1,0,0,0,.43-.38,1,1,0,0,0,.16-.56v-.08a.85.85,0,0,0-.16-.52.92.92,0,0,0-.43-.34,1.59,1.59,0,0,0-.64-.12,1.64,1.64,0,0,0-.65.12,1.12,1.12,0,0,0-.43.34.93.93,0,0,0-.15.52v.09a1,1,0,0,0,.15.56,1.07,1.07,0,0,0,.44.37,1.44,1.44,0,0,0,.64.13A1.47,1.47,0,0,0,277.25,17.19Zm-.1-3.71a.87.87,0,0,0,.36-.35,1,1,0,0,0,.13-.52v-.08a.86.86,0,0,0-.13-.48.81.81,0,0,0-.36-.32,1.16,1.16,0,0,0-.54-.11,1.13,1.13,0,0,0-.54.11.89.89,0,0,0-.37.32,1,1,0,0,0-.12.49v.09a1,1,0,0,0,.12.5,1,1,0,0,0,.37.35,1.13,1.13,0,0,0,.54.12A1.16,1.16,0,0,0,277.15,13.48Z"/><path class="cls-3" d="M281,17.17h1.8v1.64H281Z"/><path class="cls-3" d="M286.87,18.81h-1.8V12.05l-1.16.4V10.72l1.43-.59h1.53Z"/><path class="cls-3" d="M288.55,17.17h1.8v1.64h-1.8Z"/><path class="cls-3" d="M291.69,17.34,295,13.42a2.3,2.3,0,0,0,.34-.54,1.37,1.37,0,0,0,.13-.52h0a.67.67,0,0,0-.25-.54,1.15,1.15,0,0,0-.71-.19,1.05,1.05,0,0,0-.73.26,1.25,1.25,0,0,0-.33.76h-1.85a3,3,0,0,1,.43-1.4,2.39,2.39,0,0,1,1-.89,3.23,3.23,0,0,1,1.46-.31,3.88,3.88,0,0,1,1.53.27,2,2,0,0,1,1,.77,2.2,2.2,0,0,1,.33,1.22h0a3.25,3.25,0,0,1-.23,1.17,3.67,3.67,0,0,1-.63,1.06l-2.36,2.69h3.27v1.58h-5.65Z"/></svg>