<?xml version="1.0" standalone="no"?>
<svg
  width="600"
  height="600"
  viewBox="0 0 600 600"
  xmlns="http://www.w3.org/2000/svg"
>
  <g transform="translate(300,300)">
    <path d="M69.5,-90C102.2,-55.4,149.1,-45,181.3,-10.1C213.5,24.8,231,84.1,205,108.1C178.9,132,109.3,120.5,56,129.3C2.6,138.1,-34.4,167.3,-82.2,172.8C-129.9,178.4,-188.4,160.5,-215.5,120.8C-242.7,81.2,-238.5,19.9,-218,-28.3C-197.4,-76.6,-160.4,-111.8,-121.3,-145.3C-82.3,-178.7,-41.1,-210.4,-11.4,-196.8C18.4,-183.3,36.9,-124.6,69.5,-90Z" fill="#FFB4BC" />
  </g>
</svg>
  